<svg xml:space="preserve" style="enable-background:new -350 0 1000 1000;" viewBox="-350 0 1000 1000" y="0px" x="0px" xmlns:xlink="http://www.w3.org/1999/xlink" xmlns="http://www.w3.org/2000/svg" id="图层_1" version="1.1">
<style type="text/css">
	.st0{fill:#F7BD67;}
	.st1{clip-path:url(#SVGID_2_);}
	.st2{fill:#E4547D;}
	.st3{fill:#3E3A39;}
	.st4{fill:#0D5483;}
	.st5{clip-path:url(#SVGID_4_);}
	.st6{fill:#D83367;}
	.st7{fill:#595758;}
	.st8{fill:#EFB134;}
	.st9{fill:#71C6EA;}
	.st10{clip-path:url(#SVGID_6_);}
</style>
<g>
	<g id="XMLID_2012_">
		<circle r="394.3" cy="483" cx="155" class="st0"></circle>
	</g>
	<g>
		<g>
			<g id="XMLID_4321_">
				<defs>
					<circle r="394.3" cy="483" cx="155" id="SVGID_1_"></circle>
				</defs>
				<clipPath id="SVGID_2_">
					<use style="overflow:visible;" xlink:href="#SVGID_1_"></use>
				</clipPath>
				<g class="st1" id="XMLID_97_">
					<g id="XMLID_5130_">
						<path d="M195.6,1114.8c0,0-136.1,191.4-164,266.7c-36.8,99.3,170.7,350.3,356.7,425.6l22-299.6
							c0,0-96.4-55.8-98.9-88.3c-2.5-32.5,67.2-134.8,67.2-134.8L195.6,1114.8z" class="st2"></path>
						<path d="M389.1,1808.7l-1.3-0.4C204,1733.5-6.4,1482.1,30.8,1381.5c27.5-74.4,162.7-265,164-266.7l0.4-0.8
							l184.7,170.7l-0.4,0.4c-0.8,0.8-69.3,102.3-67.2,134.4c2.1,31.7,97.2,87.1,98.5,87.5l0.4,0.4v0.4L389.1,1808.7z M195.6,1116.1
							c-9.7,13.5-136.5,194-163.1,265.8c-16.9,46.1,19.4,130.6,94.7,221c76.5,92.1,173.7,167.8,260.3,203.3l22-297.9
							c-8-4.6-96.4-57.1-98.9-88.7c-2.1-31.7,60.9-125.5,67.2-134.8L195.6,1116.1z" class="st3"></path>
					</g>
					<g id="XMLID_5129_">
						<path d="M407.7,1320.2c0,0-29.6,461.9-27.5,587.4c2.1,125.5,23.2,245.1-3.4,334.7
							c-15.2,50.3-26.6,88.7-33.8,112.4c-5.5,18.6,4.2,38,22.8,44.8c12.7,4.6,23.7,2.1,33-4.6c0,0,19.4,22,45.6,8.5
							c0,0,22,15.2,47.8,1.3V1325.7L407.7,1320.2z" class="st2"></path>
						<path d="M469.4,2411.4c-13.1,0-23.2-5.5-25.4-6.8c-23.7,11.8-42.3-5.1-45.6-8.5c-10.1,7.2-21.6,8.5-33,4.2
							c-18.6-6.8-28.7-27-23.2-46.1c10.6-34.7,22-72.7,33.8-112.4c19-63,13.9-142.4,8.5-226.1c-2.1-35.1-4.6-71.4-5.1-108.2
							c-2.1-124.2,27-582.8,27.5-587.4v-0.8l85.8,5.9v1079.8l-0.4,0.4C484.2,2409.7,476.2,2411.4,469.4,2411.4z M444.1,2402.5
							L444.1,2402.5c0.4,0.4,22,14.8,46.9,1.7V1326.5l-82.4-5.5c-1.3,22.4-29.6,464.9-27,586.2c0.8,36.8,3,73.1,5.1,108.2
							c5.1,84.1,10.1,163.1-8.9,226.5c-11.8,39.7-23.2,77.8-33.8,112.4c-5.5,18.2,4.2,37.2,22,44c11.4,4.2,22.4,2.5,32.1-4.2
							l0.4-0.4l0.4,0.4c0,0.4,19.4,21.1,44.4,8L444.1,2402.5z" class="st3"></path>
					</g>
					<g id="XMLID_5128_">
						<path d="M312.2,969.4c0,0-65.5,91.3-126.4,127.2c0,0,91.3,210.9,306,251V990.6L312.2,969.4z" class="st4"></path>
						<path d="M492.7,1348.5h-0.8c-111.1-20.7-188.5-87.9-233.7-140.7c-49-57.1-72.3-110.3-72.7-110.7l-0.4-0.8l0.8-0.4
							c60-35.1,125.5-125.9,125.9-126.8l0.4-0.4l180.9,21.1v358.8H492.7z M187.1,1097.1c3,6.3,26.2,56.2,72.3,109.5
							c45.2,52.4,121.7,119.2,231.6,139.9V991l-178.3-20.7C308,977,245,1062.4,187.1,1097.1z" class="st3"></path>
					</g>
					<g id="XMLID_5127_">
						<polygon points="354.1,523.1 550.6,516 550.6,638.9 465.2,640.6" class="st2"></polygon>
					</g>
					<g id="XMLID_94_">
						<g id="XMLID_5126_">
							<path d="M252.6,559.9c0,0-251,283.6-322.9,363.4c0,0-40.6,37.2-128.9,113.3c0,0-60.9,42.3-63,58.3
								c-2.5,16.1,25.4,24.1,57.1,2.5l22.8-13.1c0,0-11,16.5,13.1,31.3c0,0,18.6,11.8,29.2,5.1c0,0,8,12.7,22.4,13.5
								c0,0,6.8,1.7,12.7-8c0,0,27.9,14.4,44.8-17.3l43.5-48.6l289.5-302.6L252.6,559.9z" class="st2"></path>
						</g>
						<g id="XMLID_5106_">
							<g id="XMLID_5123_">
								<defs>
									<path d="M258.1,554c0,0-257,289.5-328.8,368.9c0,0-40.6,37.2-128.9,113.3c0,0-60.9,42.3-63,58.3
										c-2.5,16.1,25.4,24.1,57.1,2.5l22.8-13.1c0,0-11,16.5,13.1,31.3c0,0,18.6,11.8,29.2,5.1c0,0,8,12.7,22.4,13.5
										c0,0,6.8,1.7,12.7-8c0,0,27.9,14.4,44.8-17.3l43.5-48.6l289.5-303L258.1,554z" id="SVGID_3_"></path>
								</defs>
								<clipPath id="SVGID_4_">
									<use style="overflow:visible;" xlink:href="#SVGID_3_"></use>
								</clipPath>
								<g class="st5" id="XMLID_5125_">
									<path d="M214.2,748c0,0-170.7,163.6-188.1,187.2l-28.7,34.7c0,0-56.6,64.7,19,68.9c0,0,134.8-10.6,138.2-24.5
										s45.2-108.2,45.2-112.4s95.5-149.2,95.5-149.2l-17.7-58.3L214.2,748z" class="st6"></path>
								</g>
							</g>
							<g id="XMLID_5122_">
								<path d="M-116.7,1134.7c-0.8,0-1.3,0-1.3,0c-12.7-0.8-20.7-11-22.4-13.1c-11,6.3-28.3-4.6-29.2-5.1
									c-8.5-5.5-13.9-11.4-15.2-18.2c-1.3-5.1,0-9.7,1.3-11.8l-21.1,12.3c-22.4,15.2-42.7,15.6-52,9.7c-4.6-3-6.8-7.6-6.3-12.7
									c2.5-16.1,60.9-57.1,63.4-58.7c87.5-74.8,128.5-112.8,128.9-113.3c71-78.6,326.7-367.7,329.2-370.6l0.8,0.8
									c-2.5,3-258.2,292-329.2,370.6c-0.4,0.4-41.4,38.5-128.9,113.3c-0.8,0.4-60.4,42.3-63,57.9c-0.8,4.6,1.3,8.9,5.5,11.4
									c8.9,5.9,28.7,5.1,50.7-9.7l25.4-14.4l-1.3,2.1c0,0-3.8,5.5-2.1,13.1c1.3,6.3,6.3,12.3,14.8,17.3c0,0,18.2,11.4,28.3,5.1
									l0.4-0.4l0.4,0.4c0,0,8,12.3,22,13.1c0.4,0,6.8,1.3,11.8-7.6l0.4-0.4l0.4,0.4c1.3,0.4,27.5,13.5,44-16.9l43.5-48.6
									l273.9-287.4l0.8,0.8l-273.9,287.4l-43.5,48.6c-15.6,29.2-41,19.4-45.2,17.3C-109.6,1133.8-114.2,1134.7-116.7,1134.7z" class="st3"></path>
							</g>
							<g id="XMLID_5119_">
								<path d="M-93.1,965.6c0,0-8,5.9-19.4,16.1c-3,2.5-5.9,5.1-8.9,8.5c-3,3-6.3,6.3-9.3,9.7
									c-3,3.4-6.3,7.2-8.9,11.4c-1.3,2.1-2.1,4.2-3,6.8c-0.8,2.5-0.8,4.6,0,6.8c0.8,2.1,3.4,3,5.5,3.8c2.5,0.4,4.6,0.8,7.2,0.4
									c5.1-0.4,9.7-1.3,14.4-2.5c8.9-2.5,17.3-5.9,23.7-9.7c6.3-4.2,11.8-7.6,15.2-10.1c3.4-2.5,5.1-4.6,5.1-4.6s-1.7,2.1-5.1,4.6
									c-3.4,3-8.5,6.8-14.8,11c-3.4,2.1-7.2,3.8-11,5.5s-8.5,3.4-13.1,4.6c-4.6,1.3-9.3,2.5-14.4,2.5c-2.5,0-5.1,0-7.6-0.4
									c-2.5-0.4-5.5-1.7-6.8-4.6c-1.3-2.5-0.8-5.5-0.4-8c0.8-2.5,2.1-5.1,3.4-7.2c2.5-4.2,5.9-8,8.9-11.8c3.4-3.4,6.3-6.8,9.7-9.7
									c3.4-3,6.3-5.5,9.3-8c5.9-5.1,11-8.9,14.4-11.4C-95.2,967.3-93.1,965.6-93.1,965.6z" class="st3"></path>
							</g>
							<g id="XMLID_5116_">
								<path d="M-183.5,1084.8c0,0,2.5-1.7,6.3-3.8c2.1-1.3,4.2-2.5,6.3-4.2c2.1-1.7,4.6-3.4,7.2-5.1
									c2.5-1.7,4.6-3.8,6.8-5.5c2.1-1.7,3.8-3.8,5.5-5.5s3-3,3.8-3.8c0.8-0.8,1.3-1.7,1.3-1.7s-0.4,0.8-1.3,1.7
									c-0.8,1.3-1.7,2.5-3.4,4.2c-1.3,1.7-3.4,3.8-5.1,5.9c-2.1,2.1-4.2,3.8-6.8,5.9c-4.6,3.8-10.1,6.8-13.9,8.9
									C-181,1084-183.5,1084.8-183.5,1084.8z" class="st3"></path>
							</g>
							<g id="XMLID_5113_">
								<path d="M-134.5,1057.8c0,0,1.3-0.8,3.8-2.5c2.5-1.3,6.3-3.4,11-5.1c2.5-0.4,5.1-1.3,8.5-0.4
									c1.3,0.4,3,1.3,3.8,3c0.8,1.3,1.3,3,1.7,4.6c0.4,1.7,0,3.4,0,4.6c-0.4,1.7-0.4,3.4-0.8,5.1c-0.8,3.4-1.7,6.3-3,9.7
									c-2.5,6.3-5.5,12.3-8.5,17.7c-3.4,5.5-6.8,10.1-10.1,13.9c-1.7,2.1-3.4,3.8-4.6,5.1c-1.3,1.3-3,2.5-3.8,3.4
									c-1.3,0.8-2.1,1.7-3,2.1s-0.8,0.8-0.8,0.8s0.4-0.4,0.8-0.8s1.7-1.3,2.5-2.1c1.3-0.8,2.5-2.1,3.8-3.8s3-3.4,4.2-5.1
									c3-3.8,6.3-8.9,9.3-13.9c3-5.5,5.9-11.4,8.5-17.3c1.3-3,2.1-6.3,3-9.3c0.4-1.7,0.4-3,0.8-4.6c0-1.7,0-3.4,0-4.6
									c-0.4-3-1.7-5.5-4.2-6.3s-5.1-0.4-7.6,0c-4.6,1.3-8.5,3-11,4.2C-132.8,1056.9-134.5,1057.8-134.5,1057.8z" class="st3"></path>
							</g>
							<g id="XMLID_5110_">
								<path d="M-106.6,1063.7c0,0,1.3-0.4,3.8-0.4c1.3,0,3-0.4,4.6-0.4s3.8,0,5.9,0.4s4.6,0.8,6.8,2.1
									c2.1,1.3,4.6,3,5.9,5.5c1.3,2.5,2.1,5.5,1.7,8.5c0,3-0.8,5.9-1.7,8.5c-1.7,5.5-4.2,11-7.2,15.6c-3,4.6-5.9,8.9-8.9,11.8
									c-5.9,6.8-10.6,10.1-10.6,10.1s4.2-3.8,9.7-11c2.5-3.4,5.5-7.6,8.5-12.3c3-4.6,5.1-9.7,6.8-15.2c0.8-2.5,1.7-5.5,1.7-8.5
									c0.4-3-0.4-5.5-1.3-7.6c-1.3-2.1-3.4-3.8-5.5-5.1c-2.1-0.8-4.2-1.7-6.3-2.1c-2.1-0.4-4.2-0.4-5.9-0.8c-1.7,0-3.4,0-4.6,0
									C-104.9,1063.7-106.6,1063.7-106.6,1063.7z" class="st3"></path>
							</g>
							<g id="XMLID_5107_">
								<path d="M-77.9,1079.7c0,0,0.4-0.4,1.3-1.3c0.8-0.4,2.5-1.7,4.2-2.1c0.8-0.4,2.1-0.4,3.4-0.4
									c1.3,0,2.5,0,3.8,0.4c1.3,0.4,2.5,0.8,3.4,2.1c1.3,0.8,2.1,1.7,3,3c0.8,1.3,1.3,2.1,2.1,3.4c0.4,1.3,0.8,2.5,1.3,3.4
									c0.8,2.1,1.3,4.6,1.7,6.3c0.4,3.8,0.4,6.3,0.4,6.3s-0.8-2.5-1.7-6.3c-0.4-1.7-1.3-3.8-2.1-6.3c-0.4-1.3-0.8-2.1-1.3-3.4
									c-0.8-0.8-1.3-2.1-2.1-3c-0.8-0.8-1.3-2.1-2.5-2.5c-0.8-0.8-2.1-1.3-3-1.7c-1.3-0.4-2.1-0.8-3-0.8c-0.8,0-2.1,0-3,0.4
									c-1.7,0.4-3.4,0.8-4.2,1.3C-77.4,1079.3-77.9,1079.7-77.9,1079.7z" class="st3"></path>
							</g>
						</g>
						<g id="XMLID_5104_">
							<path d="M354.1,466.1c46.5-118.3,17.3-205.8,17.3-205.8C357.9,150,250.9,108.6,215,125.5
								c-36.3,16.9-61.7,18.6-61.7,18.6c-50.7-8.9-82.8,17.7-80.3,49c2.5,31.3,13.9,29.2,17.7,56.2c3,22.4-41.8,14.4-41.8,14.4
								C-10.2,273,5.8,358.8,55.7,404c14.4,13.1,35.9,32.1,35.9,32.1c-24.1-3.4-19,15.2,11,41c30,25.8,67.6,27.5,82.8,30.4
								c15.2,3,44,16.5,65.9,14.4c22-2.1,95.9-43.1,95.9-43.1L354.1,466.1z" class="st7"></path>
						</g>
						<g id="XMLID_5103_">
							<circle r="17.7" cy="500.7" cx="237" class="st8"></circle>
							<path d="M237,519.3c-10.1,0-18.6-8.5-18.6-18.6c0-10.1,8.5-18.6,18.6-18.6c10.1,0,18.6,8.5,18.6,18.6
								C255.6,510.9,247.6,519.3,237,519.3z M237,483.8c-9.3,0-16.9,7.6-16.9,16.9s7.6,16.9,16.9,16.9c9.3,0,16.9-7.6,16.9-16.9
								S246.7,483.8,237,483.8z" class="st3"></path>
						</g>
						<g id="XMLID_5102_">
							<circle r="17.7" cy="445" cx="351.5" class="st8"></circle>
							<path d="M351.5,463.6c-10.1,0-18.6-8.5-18.6-18.6s8.5-18.6,18.6-18.6c10.1,0,18.6,8.5,18.6,18.6
								S361.7,463.6,351.5,463.6z M351.5,428.1c-9.3,0-16.9,7.6-16.9,16.9s7.6,16.9,16.9,16.9c9.3,0,16.9-7.6,16.9-16.9
								S360.8,428.1,351.5,428.1z" class="st3"></path>
						</g>
						<g id="XMLID_5101_">
							
								<rect height="34.7" width="184.7" class="st8" transform="matrix(-0.7861 -0.6181 0.6181 -0.7861 -602.6707 1701.4291)" y="937.7" x="-99.3"></rect>
							<path d="M55.3,1027.3l-0.8-0.4L-91.4,912.4l22.4-28.7l0.8,0.4L77.7,998.6L55.3,1027.3z M-89.3,911.5l143.7,113.3
								l20.7-26.2L-68.6,885.3L-89.3,911.5z" class="st3"></path>
						</g>
						<g id="XMLID_5100_">
							<path d="M192.2,684.2" class="st7"></path>
						</g>
						<g id="XMLID_5099_">
							<circle r="68" cy="453" cx="281.8" class="st2"></circle>
						</g>
						<g id="XMLID_5098_">
							<path d="M199,413.7c0,0,4.2,28.7,27.5,26.6c23.2-2.1,74.4-28.7,86.6-75.2" class="st7"></path>
							<path d="M224.3,441.2c-22,0-26.2-27-26.2-27.5l1.7-0.4c0,1.3,4.6,27.9,26.6,25.8c23.7-2.1,74.4-29.6,86.2-74.8
								l1.7,0.4c-12.3,46.5-62.5,74-87.5,76.1C226,441.2,225.2,441.2,224.3,441.2z" class="st3"></path>
						</g>
						<g id="XMLID_5097_">
							<polygon points="201.5,576.4 451.3,464.4 537.9,1001.5 312.2,969.4" class="st9"></polygon>
							<path d="M539.2,1002.8h-1.3l-226.5-32.5v-0.8L200.2,576l0.8-0.4l250.6-112.8l0.4,1.3L539.2,1002.8z M313.1,968.6
								l223.6,32.1l-86.2-534.6L203.2,577.2L313.1,968.6z" class="st3"></path>
						</g>
						<g id="XMLID_5088_">
							<g id="XMLID_5090_">
								<defs>
									<polygon points="201.5,576.4 451.3,464.4 537.9,1001.5 312.2,969.4" id="SVGID_5_"></polygon>
								</defs>
								<clipPath id="SVGID_6_">
									<use style="overflow:visible;" xlink:href="#SVGID_5_"></use>
								</clipPath>
								<g class="st10" id="XMLID_5092_">
									<g id="XMLID_5096_">
										<path d="M229.8,715l-1.3-1.7c3.4-3,6.8-5.9,10.1-8.9c40.1-34.7,50.7-44,22.4-87.5
											c-31.3-47.3-36.3-115.8-36.3-116.6h2.1c0,0.8,5.1,68.9,35.9,115.8c29.6,44.8,17.3,55.4-22.8,90
											C237,709.1,233.6,712.1,229.8,715z" class="st4"></path>
									</g>
									<g id="XMLID_5095_">
										<path d="M214.6,814.8c-3.8,0-6.3-0.8-8.5-3c-5.9-6.3-1.3-22.8,15.2-52.8c24.5-45.2,57.1-44.4,80.7-43.5
											c12.7,0.4,22.8,0.8,27.9-5.9c6.3-8.5,5.1-27.5-4.2-62.5c-14.8-53.7-28.3-85.4-37.2-106.1c-13.5-31.3-18.2-41.8-3.4-71.4
											l1.7,0.8c-14.4,28.7-10.1,38,3.4,69.3c8.9,21.1,22.8,52.4,37.2,106.5c9.7,36.3,11,55.4,3.8,64.2
											c-5.9,7.6-16.9,7.2-29.6,6.8c-23.2-0.8-54.9-1.7-79,42.3c-15.6,28.7-20.7,45.2-15.6,50.7c6.8,7.2,31.7-4.2,61.3-17.3
											c16.1-7.2,33.8-15.2,52-22c21.1-7.6,35.5-20.7,43.1-38.5c16.1-37.6-1.7-88.7-13.5-115.8c-17.3-39.3,40.6-187.2,43.1-193.6
											l2.1,0.8c-0.4,1.7-60,153.4-43.1,191.9c12.3,27.5,30,79,13.5,117.5c-8,18.6-22.8,31.7-44.4,39.7
											c-17.7,6.3-35.9,14.8-51.6,22C245,806.3,225.6,814.8,214.6,814.8z" class="st4"></path>
									</g>
									<g id="XMLID_5094_">
										<path d="M220.1,955.9c-2.5-37.6,22.8-39.3,57.9-41.8c30.4-2.1,68.5-5.1,106.5-30
											c39.3-25.8,60.9-51.6,63.8-77.3c2.5-21.6-8.9-38.5-18.6-48.6c-24.9-25.8-13.1-74.8,2.1-136.9l2.1-9.3
											c16.1-67.2,57.1-87.5,57.5-87.9l0.8,1.7c-0.4,0-40.6,20.3-56.2,86.6l-2.1,9.3c-14.8,61.3-26.6,109.9-2.5,134.8
											c10.1,10.6,21.6,27.9,19,50.3c-3,26.2-24.9,52.8-64.7,79c-38.5,25.4-76.9,27.9-107.3,30c-35.1,2.5-58.3,4.2-55.8,39.7
											L220.1,955.9z" class="st4"></path>
									</g>
									<g id="XMLID_5093_">
										<path d="M302.1,1010c-12.7,0-26.2-2.1-40.6-6.3l0.4-2.1c59.2,17.7,102.3-2.1,118.3-54.1
											c11.4-37.2,27-39.3,58.3-43.1c17.3-2.1,38.9-5.1,67.6-14.4c30.9-10.1,49.4-23.2,53.2-38c3.4-13.1-5.9-22.8-5.9-23.2
											l1.7-1.3c0.4,0.4,10.1,11,6.3,24.9c-3.8,15.6-22.4,28.7-54.5,39.3c-28.7,9.3-50.7,12.3-68,14.4
											c-31.3,3.8-45.6,5.9-56.6,41.8C370.1,988.4,341.8,1010,302.1,1010z" class="st4"></path>
									</g>
								</g>
							</g>
							<g id="XMLID_5089_">
								<path d="M539.2,1002.8h-1.3l-226.5-32.5v-0.8L200.2,576l0.8-0.4l250.6-112.8l0.4,1.3L539.2,1002.8z
									 M313.1,968.6l223.6,32.1l-86.2-534.6L203.2,577.2L313.1,968.6z" class="st3"></path>
							</g>
							<g id="XMLID_5105_">
								<path d="M278.8,491.9V491c11.8-1.3,17.7-13.1,17.7-13.1l0.8,0.4C297,478.4,290.7,490.6,278.8,491.9z" class="st3"></path>
							</g>
						</g>
					</g>
				</g>
			</g>
		</g>
	</g>
</g>
</svg>
